<svg width="28" height="28" viewBox="-1 -1 30 30" fill="none" xmlns="http://www.w3.org/2000/svg">
    <g transform="translate(-43 -43.5986)">
        <path d="M57 50.932C57 49.5175 56.4381 48.1609 55.4379 47.1607C54.4377 46.1605 53.0811 45.5986 51.6666 45.5986H43.6666V65.5986H53C54.0608 65.5986 55.0782 66.0201 55.8284 66.7702C56.5785 67.5204 57 68.5378 57 69.5986M57 50.932V69.5986M57 50.932C57 49.5175 57.5619 48.1609 58.5621 47.1607C59.5622 46.1605 60.9188 45.5986 62.3333 45.5986H70.3333V65.5986H61C59.9391 65.5986 58.9217 66.0201 58.1715 66.7702C57.4214 67.5204 57 68.5378 57 69.5986" stroke="white" stroke-width="2" stroke-linecap="round" stroke-linejoin="round"/>
    </g>
</svg>
