<svg width="28" height="28" viewBox="-1.6667 -1 30 30" fill="none" xmlns="http://www.w3.org/2000/svg">
    <g transform="translate(-43.6667 -43.5986)">
        <path d="M57.0001 50.932C57.0001 49.5175 56.4382 48.1609 55.438 47.1607C54.4378 46.1605 53.0812 45.5986 51.6667 45.5986H43.6667V65.5986H53.0001C54.0609 65.5986 55.0784 66.0201 55.8285 66.7702C56.5787 67.5204 57.0001 68.5378 57.0001 69.5986M57.0001 50.932V69.5986M57.0001 50.932C57.0001 49.5175 57.562 48.1609 58.5622 47.1607C59.5624 46.1605 60.9189 45.5986 62.3334 45.5986H70.3334V65.5986H61.0001C59.9392 65.5986 58.9218 66.0201 58.1717 66.7702C57.4215 67.5204 57.0001 68.5378 57.0001 69.5986" stroke="white" stroke-width="2" stroke-linecap="round" stroke-linejoin="round"/>
    </g>
</svg>
