<svg width="120" height="116" viewBox="0 0 120 116" fill="none" xmlns="http://www.w3.org/2000/svg">
    <path d="M28.7993 28.7993C44.7047 12.8939 70.4925 12.8939 86.3979 28.7993L115.197 57.5986L86.3979 86.3979C70.4925 102.303 44.7047 102.303 28.7993 86.3979C12.8939 70.4925 12.8939 44.7047 28.7993 28.7993Z" fill="#0F8A6B"/>
    <path d="M57.0001 50.932C57.0001 49.5175 56.4382 48.1609 55.438 47.1607C54.4378 46.1605 53.0812 45.5986 51.6667 45.5986H43.6667V65.5986H53.0001C54.0609 65.5986 55.0784 66.0201 55.8285 66.7702C56.5787 67.5204 57.0001 68.5378 57.0001 69.5986M57.0001 50.932V69.5986M57.0001 50.932C57.0001 49.5175 57.562 48.1609 58.5622 47.1607C59.5624 46.1605 60.9189 45.5986 62.3334 45.5986H70.3334V65.5986H61.0001C59.9392 65.5986 58.9218 66.0201 58.1717 66.7702C57.4215 67.5204 57.0001 68.5378 57.0001 69.5986" stroke="white" stroke-width="2" stroke-linecap="round" stroke-linejoin="round"/>
</svg>
