<svg width="32" height="32" viewBox="0 0 32 32" fill="none" xmlns="http://www.w3.org/2000/svg">
    <g transform="translate(-41 -41.5986)">
        <path d="M69 60.5986C69 62.8078 67.2091 64.5986 65 64.5986C62.7908 64.5986 61 62.8078 61 60.5986C61 58.3895 62.7908 56.5986 65 56.5986C67.2091 56.5986 69 58.3895 69 60.5986ZM57 71.9986C57 73.5986 58.6 73.5986 58.6 73.5986H71.4C71.4 73.5986 73 73.5986 73 71.9986C73 70.3986 71.4 65.5986 65 65.5986C58.6 65.5986 57 70.3986 57 71.9986Z" fill="white"/>
        <path d="M45 45.5986C42.7909 45.5986 41 47.3895 41 49.5986V65.5986C41 67.8078 42.7909 69.5986 45 69.5986H55.4858C55.7304 68.9458 56.0753 68.2617 56.5382 67.5986H45C43.8954 67.5986 43 66.7032 43 65.5986V49.5986C43 48.4941 43.8954 47.5986 45 47.5986H69C70.1046 47.5986 71 48.4941 71 49.5986V65.2199C71.7069 65.6782 72.3115 66.2104 72.8211 66.7853C72.9374 66.4103 73 66.0118 73 65.5986V49.5986C73 47.3895 71.2091 45.5986 69 45.5986H45Z" fill="white"/>
    </g>
</svg>
