<svg width="40" height="40" viewBox="-1 -1 42 42" fill="none" xmlns="http://www.w3.org/2000/svg">
    <g transform="translate(-38 -37.5986)">
        <path d="M58 77.5986C69.0457 77.5986 78 68.6443 78 57.5986C78 46.5529 69.0457 37.5986 58 37.5986C46.9543 37.5986 38 46.5529 38 57.5986C38 68.6443 46.9543 77.5986 58 77.5986Z" stroke="white" stroke-width="2" stroke-linecap="round" stroke-linejoin="round"/>
        <path d="M58 69.5986C64.6274 69.5986 70 64.226 70 57.5986C70 50.9712 64.6274 45.5986 58 45.5986C51.3726 45.5986 46 50.9712 46 57.5986C46 64.226 51.3726 69.5986 58 69.5986Z" stroke="white" stroke-width="2" stroke-linecap="round" stroke-linejoin="round"/>
        <path d="M58 61.5986C60.2091 61.5986 62 59.8078 62 57.5986C62 55.3895 60.2091 53.5986 58 53.5986C55.7909 53.5986 54 55.3895 54 57.5986C54 59.8078 55.7909 61.5986 58 61.5986Z" stroke="white" stroke-width="2" stroke-linecap="round" stroke-linejoin="round"/>
    </g>
</svg>
